# xmcd CD database file
# Copyright (C) 1995 Ti Kan
#
# Track frame offsets:
#	167
#	11832
#	25700
#	38875
#	50420
#	62682
#	75937
#	89110
#	100960
#	114130
#	126290
#	139442
#	150885
#	163570
#	174132
#	185890
#
# Disc length: 2635 seconds
#
# Revision: 2
# Processed by: cddbd v1.4b41PL1 Copyright (c) Steve Scherf et al.
# Submitted via: NotifyCDPlayer(CDDB) 1.07
#
DISCID=c70a4910
DTITLE=Robert Johnson  - Delta Blues - Volume 1
DYEAR=1900
DGENRE=
TTITLE0=Crossroads Blues
TTITLE1=Terraplane Blues
TTITLE2=Come On In My Kitchen
TTITLE3=Walking Blues
TTITLE4=Last Fair Deal Gone Down
TTITLE5=32-20 Blues
TTITLE6=Kindhearted Woman Blues
TTITLE7=If I Had Possession Over Judgment Day
TTITLE8=Preaching Blues
TTITLE9=When You Got A Good Friend
TTITLE10=Rambling On My Mind
TTITLE11=Stones In My Passway
TTITLE12=Traveling Riverside Blues
TTITLE13=Milkcow's Calf Blues
TTITLE14=Me And The Devil Blues
TTITLE15=HellHound On My Trail
EXTD=
EXTT0=
EXTT1=
EXTT2=
EXTT3=
EXTT4=
EXTT5=
EXTT6=
EXTT7=
EXTT8=
EXTT9=
EXTT10=
EXTT11=
EXTT12=
EXTT13=
EXTT14=
EXTT15=
PLAYORDER=
